<svg height="496pt" viewBox="0 0 496 496" width="496pt" xmlns="http://www.w3.org/2000/svg"><path d="m370.953125 80.902344c-1.929687 3.480468-2.953125 7.425781-2.953125 11.410156 0 6.273438 2.449219 12.175781 6.886719 16.640625l12.167969 12.167969c4.449218 4.4375 10.351562 6.878906 16.632812 6.878906 4 0 7.945312-1.023438 11.402344-2.945312l54.085937-29.910157-68.160156-68.359375zm71.910156 10.503906-35.535156 19.65625c-2.855469 1.59375-6.625 1.074219-8.96875-1.261719l-12.152344-12.152343c-1.4375-1.457032-2.207031-3.296876-2.207031-5.335938 0-1.273438.328125-2.519531.9375-3.632812l19.757812-35.550782zm0 0"/><path d="m484.3125 64.992188-53.304688-53.296876c-7.535156-7.535156-17.558593-11.695312-28.222656-11.695312-14.488281 0-27.863281 7.863281-34.898437 20.527344l-24.894531 44.824218c-4.578126 8.222657-6.992188 17.550782-6.992188 26.960938 0 4.847656.65625 9.679688 1.953125 14.421875l-173.953125 173.953125-44-44-56.121094 56.121094c-41.191406 41.191406-63.878906 95.96875-63.878906 154.222656 0 13.089844 5.097656 25.382812 14.34375 34.625 9.257812 9.246094 21.550781 14.34375 34.625 14.34375 58.261719 0 113.03125-22.6875 154.222656-63.878906l56.121094-56.121094-44-44 173.953125-173.953125c13.933594 3.808594 28.933594 1.875 41.390625-5.039063l44.816406-24.894531c12.664063-7.035156 20.527344-20.402343 20.527344-34.898437 0-10.65625-4.152344-20.679688-11.6875-28.222656zm-276.3125 194.320312 28.6875 28.6875-89.121094 89.121094-45.894531 17.207031 17.207031-45.894531zm28.6875 116.6875-44.808594 44.808594c-38.167968 38.167968-88.917968 59.191406-142.910156 59.191406-8.671875 0-17.167969-3.519531-23.3125-9.65625-6.222656-6.222656-9.65625-14.503906-9.65625-23.3125 0-53.984375 21.023438-104.734375 59.191406-142.910156l44.808594-44.808594 32.6875 32.6875-47.566406 47.566406-30.792969 82.105469 82.105469-30.792969 47.566406-47.566406zm231.007812-261.871094-44.824218 24.894532c-9.894532 5.511718-21.976563 6.5625-33.007813 2.425781l-4.824219-1.808594-137.039062 137.046875-28.6875-28.6875 137.039062-137.046875-1.808593-4.824219c-1.6875-4.519531-2.542969-9.167968-2.542969-13.816406 0-6.695312 1.71875-13.335938 4.976562-19.191406l24.894532-44.824219c4.21875-7.585937 12.226562-12.296875 20.914062-12.296875 6.390625 0 12.390625 2.488281 16.910156 7.007812l53.304688 53.296876c4.511719 4.527343 7 10.527343 7 16.910156 0 8.679687-4.710938 16.695312-12.304688 20.914062zm0 0"/></svg>